<svg id="_70_notes_outline" data-name="#70_notes_outline" xmlns="http://www.w3.org/2000/svg" viewBox="0 0 400 300" width="406" height="306" class="illustration styles_illustrationTablet__1DWOa"><path d="M148.27,229.34a5.41,5.41,0,0,1-5.62-5.21l-5-127.3a5.42,5.42,0,0,1,5.21-5.63l120.94-4.71a5.42,5.42,0,0,1,5.63,5.21L274.39,218a6.44,6.44,0,0,1-6.19,6.68Z" fill="#68e1fd"></path><path d="M148.06,230.35a6.41,6.41,0,0,1-6.41-6.18l-5-127.3a6.43,6.43,0,0,1,6.17-6.67L263.8,85.5a6.41,6.41,0,0,1,6.67,6.16L275.39,218a7.45,7.45,0,0,1-7.15,7.72l-119.93,4.67Zm116-142.86h-.18L142.94,92.2a4.43,4.43,0,0,0-4.25,4.59l4.95,127.31a4.39,4.39,0,0,0,1.42,3.07,4.46,4.46,0,0,0,3.18,1.17h0l119.93-4.67a5.44,5.44,0,0,0,5.22-5.64L268.47,91.74a4.42,4.42,0,0,0-4.41-4.25Z" fill="#093f68"></path><path d="M238.12,218.31H135.26a5.42,5.42,0,0,1-5.42-5.42V85.49a5.41,5.41,0,0,1,5.42-5.42h121a5.42,5.42,0,0,1,5.42,5.42V193.54Z" fill="#fff"></path><path d="M238.12,219.31H135.26a6.44,6.44,0,0,1-6.43-6.42V85.49a6.44,6.44,0,0,1,6.43-6.42h121a6.43,6.43,0,0,1,6.42,6.42V193.54a1,1,0,0,1-.28.69L238.84,219A1,1,0,0,1,238.12,219.31ZM135.26,81.07a4.43,4.43,0,0,0-4.43,4.42v127.4a4.44,4.44,0,0,0,4.43,4.42H237.69l23-24.17V85.49a4.43,4.43,0,0,0-4.42-4.42Z" fill="#093f68"></path><path d="M238.12,218.31V199.19a5.18,5.18,0,0,1,5.17-5.17h18.43Z" fill="#ffbc0e"></path><path d="M238.12,219.31a1.16,1.16,0,0,1-.37-.07,1,1,0,0,1-.63-.93V199.19a6.18,6.18,0,0,1,6.17-6.17h18.43a1,1,0,0,1,.72,1.7L238.84,219A1,1,0,0,1,238.12,219.31ZM243.29,195a4.17,4.17,0,0,0-4.17,4.17v16.65L259.35,195Z" fill="#093f68"></path><path d="M238.12,112.38h-58a1,1,0,1,1,0-2h58a1,1,0,0,1,0,2Z" fill="#093f68"></path><path d="M238.12,128.23H154.27a1,1,0,0,1,0-2h83.85a1,1,0,0,1,0,2Z" fill="#093f68"></path><path d="M238.12,144.09H154.27a1,1,0,0,1,0-2h83.85a1,1,0,0,1,0,2Z" fill="#093f68"></path><path d="M238.12,159.94H154.27a1,1,0,0,1,0-2h83.85a1,1,0,0,1,0,2Z" fill="#093f68"></path><path d="M238.12,175.8H154.27a1,1,0,0,1,0-2h83.85a1,1,0,0,1,0,2Z" fill="#093f68"></path><path d="M206,191.66H154.27a1,1,0,0,1,0-2H206a1,1,0,0,1,0,2Z" fill="#093f68"></path><path d="M163.9,98.41A5.29,5.29,0,0,1,158.42,94l-3.16-17.84a5.11,5.11,0,0,1,1.12-4.36,6.43,6.43,0,0,1,7.73-1.37,5.12,5.12,0,0,1,2.55,3.71l.88,5a1,1,0,0,1-.81,1.16,1,1,0,0,1-1.16-.81l-.88-5a3.15,3.15,0,0,0-1.56-2.32,4.45,4.45,0,0,0-5.23.93,3.14,3.14,0,0,0-.67,2.71l3.15,17.84c.42,2.34,2.48,3,4.33,2.73s3.55-1.71,3.14-4l-.65-3.65a1,1,0,0,1,2-.35l.64,3.65c.63,3.52-1.92,5.87-4.75,6.37A7.46,7.46,0,0,1,163.9,98.41Z" fill="#093f68"></path><path d="M119.34,120h12a0,0,0,0,1,0,0v67a4.46,4.46,0,0,1-4.46,4.46h-3.07a4.46,4.46,0,0,1-4.46-4.46V120a0,0,0,0,1,0,0Z" transform="translate(299.74 253.31) rotate(158.08)" fill="#f56132"></path><path d="M133.11,192.05a.91.91,0,0,1-.39-.08,1,1,0,0,1-.54-.54l-25-62.13a5.46,5.46,0,0,1,0-4.18,5.39,5.39,0,0,1,3-2.92l2.84-1.15a5.48,5.48,0,0,1,7.11,3l25,62.12a1,1,0,0,1-.55,1.3L133.49,192A1,1,0,0,1,133.11,192.05Zm-18-69.39a3.44,3.44,0,0,0-1.29.25L111,124.05a3.47,3.47,0,0,0-1.91,4.51l24.63,61.19,9.26-3.73L118.3,124.83a3.47,3.47,0,0,0-3.21-2.17Z" fill="#093f68"></path><polygon points="133.12 191.06 144.24 186.58 145.43 201.18 145.89 206.75 142.36 202.41 133.12 191.06" fill="#fff"></polygon><path d="M145.89,207.75a1,1,0,0,1-.77-.37l-12.78-15.69a1,1,0,0,1,.4-1.56l11.13-4.48a1,1,0,0,1,.89.08,1,1,0,0,1,.48.77l1.65,20.17a1,1,0,0,1-.63,1A.94.94,0,0,1,145.89,207.75Zm-11.14-16.27,9.88,12.14L143.35,188Z" fill="#093f68"></path><polygon points="142.36 202.41 145.43 201.18 145.89 206.75 142.36 202.41" fill="#093f68"></polygon><path d="M145.89,207.75a1,1,0,0,1-.77-.37l-3.54-4.33a1,1,0,0,1-.19-.89,1,1,0,0,1,.6-.67l3.07-1.24a1,1,0,0,1,1.37.84l.46,5.58a1,1,0,0,1-.63,1A.94.94,0,0,1,145.89,207.75Zm-1.9-4.92.64.79-.08-1Z" fill="#093f68"></path></svg>
